/* XPM */
static char *result[] = {
/* columns rows colors chars-per-pixel */
"64 64 6 1 ",
"  c #141B1B",
". c #543C52",
"X c #D14B34",
"o c #E46D3A",
"O c #8F3E56",
"+ c None",
/* pixels */
"++++++++++++++++++++++++++++++++++++++++++++++++++++++++++++++++",
"++++++++++++++++++++++++++++++++++++++++++++++++++++++++++++++++",
"++++++++++++++++++++++++++++++++++++++++++++++++++++++++++++++++",
"++++++++++++++++++++++++++++++++++++++++++++++++++++++++++++++++",
"++++++++++++++++++++++++++++++++++++++++++++            ++++++++",
"++++++++++++++++++++++++++++++++++++++++++++            ++++++++",
"++++++++++++++++++++++++++++++++++++++++++++            ++++++++",
"++++++++++++++++++++++++++++++++++++++++++++            ++++++++",
"++++++++++++++++++++++++++++++++++++        XXXXXXXX    ++++++++",
"++++++++++++++++++++++++++++++++++++        XXXXXXXX    ++++++++",
"++++++++++++++++++++++++++++++++++++        XXXXXXXX    ++++++++",
"++++++++++++++++++++++++++++++++++++        XXXXXXXX    ++++++++",
"++++++++++++++++++++++++++++++++    XXXXXXXXXXXXXXXX    ++++++++",
"++++++++++++++++++++++++++++++++    XXXXXXXXXXXXXXXX    ++++++++",
"++++++++++++++++++++++++++++++++    XXXXXXXXXXXXXXXX    ++++++++",
"++++++++++++++++++++++++++++++++    XXXXXXXXXXXXXXXX    ++++++++",
"++++++++++++                    ooooooooXXXXXXXXXXXX    ++++++++",
"++++++++++++                    ooooooooXXXXXXXXXXXX    ++++++++",
"++++++++++++                    ooooooooXXXXXXXXXXXX    ++++++++",
"++++++++++++                    ooooooooXXXXXXXXXXXX    ++++++++",
"++++++++++++    OOOOOOOO    XXXXooooooooXXXXXXXXXXXX    ++++++++",
"++++++++++++    OOOOOOOO    XXXXooooooooXXXXXXXXXXXX    ++++++++",
"++++++++++++    OOOOOOOO    XXXXooooooooXXXXXXXXXXXX    ++++++++",
"++++++++++++    OOOOOOOO    XXXXooooooooXXXXXXXXXXXX    ++++++++",
"++++++++    XXXXooooXXXXXXXXXXXXooooooooXXXXXXXXXXXX    ++++++++",
"++++++++    XXXXooooXXXXXXXXXXXXooooooooXXXXXXXXXXXX    ++++++++",
"++++++++    XXXXooooXXXXXXXXXXXXooooooooXXXXXXXXXXXX    ++++++++",
"++++++++    XXXXooooXXXXXXXXXXXXooooooooXXXXXXXXXXXX    ++++++++",
"++++++++++++    ........    XXXXXXXXXXXXXXXX            ++++++++",
"++++++++++++    ........    XXXXXXXXXXXXXXXX            ++++++++",
"++++++++++++    ........    XXXXXXXXXXXXXXXX            ++++++++",
"++++++++++++    ........    XXXXXXXXXXXXXXXX            ++++++++",
"++++++++++++    OOOOOOOO    XXXXXXXX        ++++++++++++++++++++",
"++++++++++++    OOOOOOOO    XXXXXXXX        ++++++++++++++++++++",
"++++++++++++    OOOOOOOO    XXXXXXXX        ++++++++++++++++++++",
"++++++++++++    OOOOOOOO    XXXXXXXX        ++++++++++++++++++++",
"++++++++    XXXXooooXXXXXXXX        ++++++++++++++++++++++++++++",
"++++++++    XXXXooooXXXXXXXX        ++++++++++++++++++++++++++++",
"++++++++    XXXXooooXXXXXXXX        ++++++++++++++++++++++++++++",
"++++++++    XXXXooooXXXXXXXX        ++++++++++++++++++++++++++++",
"++++++++++++    ........    ++++++++++++++++++++++++++++++++++++",
"++++++++++++    ........    ++++++++++++++++++++++++++++++++++++",
"++++++++++++    ........    ++++++++++++++++++++++++++++++++++++",
"++++++++++++    ........    ++++++++++++++++++++++++++++++++++++",
"++++++++++++    OOOOOOOO    ++++++++++++++++++++++++++++++++++++",
"++++++++++++    OOOOOOOO    ++++++++++++++++++++++++++++++++++++",
"++++++++++++    OOOOOOOO    ++++++++++++++++++++++++++++++++++++",
"++++++++++++    OOOOOOOO    ++++++++++++++++++++++++++++++++++++",
"++++++++++++    OOOOOOOO    ++++++++++++++++++++++++++++++++++++",
"++++++++++++    OOOOOOOO    ++++++++++++++++++++++++++++++++++++",
"++++++++++++    OOOOOOOO    ++++++++++++++++++++++++++++++++++++",
"++++++++++++    OOOOOOOO    ++++++++++++++++++++++++++++++++++++",
"++++++++++++    OOOOOOOO    ++++++++++++++++++++++++++++++++++++",
"++++++++++++    OOOOOOOO    ++++++++++++++++++++++++++++++++++++",
"++++++++++++    OOOOOOOO    ++++++++++++++++++++++++++++++++++++",
"++++++++++++    OOOOOOOO    ++++++++++++++++++++++++++++++++++++",
"++++++++++++    OOOOOOOO    ++++++++++++++++++++++++++++++++++++",
"++++++++++++    OOOOOOOO    ++++++++++++++++++++++++++++++++++++",
"++++++++++++    OOOOOOOO    ++++++++++++++++++++++++++++++++++++",
"++++++++++++    OOOOOOOO    ++++++++++++++++++++++++++++++++++++",
"++++++++++++++++++++++++++++++++++++++++++++++++++++++++++++++++",
"++++++++++++++++++++++++++++++++++++++++++++++++++++++++++++++++",
"++++++++++++++++++++++++++++++++++++++++++++++++++++++++++++++++",
"++++++++++++++++++++++++++++++++++++++++++++++++++++++++++++++++"
};
