/* XPM */
static char *result[] = {
/* columns rows colors chars-per-pixel */
"32 32 6 1 ",
"  c #141B1B",
". c #56634D",
"X c #5F7160",
"o c #8D977F",
"O c #B6BEB0",
"+ c None",
/* pixels */
"+++++++++++          +++++++++++",
"+++++++++  oooooooooo  +++++++++",
"++++++++ oooooooooooooo ++++++++",
"+++++++ OOoooooooooooooo +++++++",
"++++++ OOOOOoooooooooooX. ++++++",
"+++++ OOOOOOOOooooooooX.. ++++++",
"+++++ OOOOOOOOOooooXX.... ++++++",
"+++++ OOOOOOOOooXXXX...... +++++",
"+++++ ooOOOOOOooXXXX....... ++++",
"+++++ ooooOOOooXXXXX...XXX.. +++",
"++++ OooooooOooXXXXX..XXXXX.. ++",
"+++ OOOooooooOOooXXXXXXXXXX... +",
"++ OOOOOOooooOOOOoooXXXXXX.... +",
"+ OOOOOOOOooOOOOOOOOoXXX..XX... ",
"+ OOOOOOOOOoOOOOOOOOoX..XXXXXX. ",
" OOOOOOOOOOoooOOOOOoX..XXXXXXXX ",
" OOOOOOOOOOoooooOOoXX..XXXXXXXX ",
" OOOOOOOOoooooooooXX...XXXXXXX. ",
" ooOOOOOOXooooooooXXXXXXXXXXX.. ",
" oooOOOOXXXoooooooooooooXXXX... ",
" ooooooXXXXXoooOOOoooooooXXX... ",
" ooooooXXXXXXoOOOOOoooooooXX... ",
" ooooooXXXXXXooOOOOOooooooX.... ",
"+oooooXXXXXXooooOOOOOXXXXX..... ",
"+oooooXXXXXXoooooOOOX..........+",
"++ooooXXXXXoooooooOXX..........+",
"+++oooXXXXXoooooooXX..........++",
"++++++++++ooooooooX..........+++",
"+++++++++++ooooooXX.........++++",
"++++++++++++oooooX.........+++++",
"+++++++++++++oooXX........++++++",
"+++++++++++++++oXX......++++++++"
};
