/* XPM */
static char *_b89d4c256854f1a807f772c101112eeutPsCIPRkK1CbEmW[] = {
/* columns rows colors chars-per-pixel */
"32 32 3 1 ",
"  c None",
". c #FDAE35",
"X c #FEE861",
/* pixels */
"                                ",
"                                ",
"          ..                    ",
"         ....                   ",
"         .  .                   ",
"        .    .                  ",
"    ... .    . ...              ",
"   .. ...    ... ..             ",
"  ..    ..  ..    ..            ",
"  ..    ......    ..            ",
"  ..   .  ..  .   ..            ",
"   ..  . .  . .  ..             ",
"     .. ..  .. ..               ",
"       ........      ....       ",
"       ......       ..  ..      ",
"          ..       ........     ",
"         ..XX     ....  ....    ",
"          ..      ...    ...    ",
"         ..XX     ...    ...    ",
"          ..      ....  ....    ",
"          .X       ........     ",
"          .X         ....       ",
"          .X          ..        ",
"          .X          .X        ",
"          .X. ..      .X        ",
"          .X....      .X        ",
"          .X...       .X        ",
"          .X....      .X..      ",
"          .X. ..      .X.       ",
"          .X          .X..      ",
"                                ",
"                                "
};
