/* XPM */
static char *result[] = {
/* columns rows colors chars-per-pixel */
"32 32 7 1 ",
"  c #754C60",
". c #90625D",
"X c #D99A9A",
"o c #DCB98A",
"O c #E8B5AC",
"+ c #F3E5C2",
"@ c None",
/* pixels */
"@@@@@@@@@@@@@@@@@@@@@@@@@@@@@@@@",
"@@@@@@@@@@@@@@@@@@@@@@@@@@@@@@@@",
"@@@@@@@@@@@@@@@@@@@@@@@@@@@@@@@@",
"@@@@@@@@@@@@@@@@@@@@@@@@@@@@@@@@",
"@@@@@@@@@@@@@@@@@@@@@@@@@@@@@@@@",
"@@@@@@@@@@@@@@@@@@@@@@@@@@@@@@@@",
"@@@@@@@@@@@@@@@@@@@@@@@@@@@@@@@@",
"@@@@@@@@@@@@@@@@@@..@@..@@@@@@@@",
"@@@@@@@@@@@@@@@@@.+.@@.+.@@@@@@@",
"@@@@@@@@@@@@@@..@.+....+.@@..@@@",
"@@@@@@@@@@@@@.++..ooooo++..++.@@",
"@@@@@@@@@.....++++ooooo+++.++.@@",
"@@@@@@@..ooo+.OO+ooo o++ +.OO.@@",
"@@@@@@.ooooo++...ooo +++ ++..@@@",
"@@@@@@.oooo++++++++++++++++.@@@@",
"@@@@@..oo++++++++++++OOOOOO.@@@@",
"@@@@.o.++++++oo++.++OOXOOXO.@@@@",
"@@@.o..+++++oooo++.+OOOOOOO.@@@@",
"@@@..@.++++++oo++++........@@@@@",
"@@@@@@.oooo+++++++ooo.@@@@@@@@@@",
"@@@@@@.oooooooooooooo.@@@@@@@@@@",
"@@@@@@@.oo....oo...oo.@@@@@@@@@@",
"@@@@@@@.oo.@@.oo.@.oo.@@@@@@@@@@",
"@@@@@@@@..@@@@..@@@..@@@@@@@@@@@",
"@@@@@@@@@@@@@@@@@@@@@@@@@@@@@@@@",
"@@@@@@@@@@@@@@@@@@@@@@@@@@@@@@@@",
"@@@@@@@@@@@@@@@@@@@@@@@@@@@@@@@@",
"@@@@@@@@@@@@@@@@@@@@@@@@@@@@@@@@",
"@@@@@@@@@@@@@@@@@@@@@@@@@@@@@@@@",
"@@@@@@@@@@@@@@@@@@@@@@@@@@@@@@@@",
"@@@@@@@@@@@@@@@@@@@@@@@@@@@@@@@@",
"@@@@@@@@@@@@@@@@@@@@@@@@@@@@@@@@"
};
