/* XPM */
static char *result[] = {
/* columns rows colors chars-per-pixel */
"32 32 5 1 ",
"  c #141B1B",
". c #4A5270",
"X c #548789",
"o c #79B8CE",
"O c white",
/* pixels */
"                                ",
"                                ",
"              ooooooo           ",
"           ooooooooooOOO        ",
"         oooooooooooooooOO      ",
"       oooooooooooooooooooOO    ",
"      ooooooooooooooooooooooO   ",
"     ooooooooooooooooooooooooO  ",
"    ooOOOoooooooooooooooooooooO ",
"   ooOOOOOooooooooooooooooooooO ",
"  oooOOOOOoooooooooooooooooooooO",
"  oooOOOOOoooooooooooooooooooooO",
" oooooOOOooooooooooooooooooooooO",
" ooOOooooooooooooooooooooooooooO",
" ooOOooooooooooooooooooooooooooO",
"XooooooooooooooooooooooooooooooO",
"XooooooooooooooooooooooooooooooO",
"XoooooooooooooooooooooooooooooO ",
"Xooooooooo  ooooooo  oooooooooO ",
" Xoooooooo   ooooo   ooooooooO  ",
" Xooooooooo   ooo   ooooooooO   ",
"  Xooooooooo  ooo  oooooooOO    ",
"   XoooooooooooooooooooooO      ",
"    XXoooooooooooooooooo.       ",
"      XXoooooooooooooo...XX     ",
"        XXXXoooooooo...XXXXX    ",
"         ...XXXXXXXXXXXXXXXXX  X",
"        .XXXXXXXX.XXXXX.XXXX...X",
"       XXXXX.XXXX.XXXXX.XXXX..XX",
"       XXXXX.XXXX..XXXX..XXXX.XX",
"      XXXXX..XXX...XXXX...XXXXXX",
"     XXXXX...XXX...XXXXX....XXXX"
};
